<svg width="500" height="500" viewBox="0 0 500 500" fill="none" xmlns="http://www.w3.org/2000/svg">
<rect width="500" height="500" rx="75" fill="#002366"/>
<path d="M160.275 355.6C139.075 355.6 120.875 351.1 105.675 342.1C90.4754 332.9 78.7754 320.2 70.5754 304C62.3754 287.6 58.2754 268.7 58.2754 247.3C58.2754 225.9 62.3754 207 70.5754 190.6C78.7754 174.2 90.4754 161.4 105.675 152.2C120.875 143 139.075 138.4 160.275 138.4C185.475 138.4 206.075 144.7 222.075 157.3C238.275 169.7 248.375 187.2 252.375 209.8H210.075C207.475 198.4 201.875 189.5 193.275 183.1C184.875 176.5 173.675 173.2 159.675 173.2C140.275 173.2 125.075 179.8 114.075 193C103.075 206.2 97.5754 224.3 97.5754 247.3C97.5754 270.3 103.075 288.4 114.075 301.6C125.075 314.6 140.275 321.1 159.675 321.1C173.675 321.1 184.875 318.1 193.275 312.1C201.875 305.9 207.475 297.4 210.075 286.6H252.375C248.375 308.2 238.275 325.1 222.075 337.3C206.075 349.5 185.475 355.6 160.275 355.6ZM286.367 352V142H370.667C392.467 142 409.067 147.1 420.467 157.3C432.067 167.3 437.867 180.2 437.867 196C437.867 209.2 434.267 219.8 427.067 227.8C420.067 235.6 411.467 240.9 401.267 243.7C413.267 246.1 423.167 252.1 430.967 261.7C438.767 271.1 442.667 282.1 442.667 294.7C442.667 311.3 436.667 325 424.667 335.8C412.667 346.6 395.667 352 373.667 352H286.367ZM324.767 230.2H364.967C375.767 230.2 384.067 227.7 389.867 222.7C395.667 217.7 398.567 210.6 398.567 201.4C398.567 192.6 395.667 185.7 389.867 180.7C384.267 175.5 375.767 172.9 364.367 172.9H324.767V230.2ZM324.767 320.8H367.667C379.067 320.8 387.867 318.2 394.067 313C400.467 307.6 403.667 300.1 403.667 290.5C403.667 280.7 400.367 273 393.767 267.4C387.167 261.8 378.267 259 367.067 259H324.767V320.8Z" fill="white"/>
</svg>
